<svg width="226" height="226" viewBox="0 0 226 226" fill="none" xmlns="http://www.w3.org/2000/svg">
<rect x="2.74392" y="2.74392" width="220.512" height="220.512" rx="110.256" stroke="#56CCA1" stroke-width="5.48785"/>
<g clip-path="url(#clip0_1577_975)">
<path d="M217.568 113.843C217.568 172.06 170.375 219.254 112.158 219.254C53.9414 219.254 6.74749 172.06 6.74749 113.843C6.74749 55.6267 53.9414 8.43286 112.158 8.43286C170.375 8.43286 217.568 55.6267 217.568 113.843Z" fill="#56CCA1"/>
<path fill-rule="evenodd" clip-rule="evenodd" d="M202.526 168.139C212.074 152.28 217.568 133.703 217.568 113.843C217.568 55.6267 170.375 8.43286 112.158 8.43286C74.5472 8.43286 41.535 28.1306 22.879 57.7726C5.49006 45.8209 -13.0632 63.7404 -13.0632 84.8407V192.965C-13.0632 210.509 1.15869 224.731 18.7023 224.731H25.065C39.0946 224.731 50.4679 213.357 50.4679 199.328C58.096 204.842 66.4914 209.36 75.4636 212.692C75.4636 219.341 80.8534 224.731 87.5021 224.731H145.934C177.189 224.731 202.526 199.394 202.526 168.139ZM202.526 168.139L202.526 110.166C202.526 75.0791 174.082 46.6353 138.995 46.6353C103.907 46.6353 75.4635 75.0791 75.4635 110.166L75.4636 212.692C86.8903 216.935 99.2544 219.254 112.158 219.254C150.515 219.254 184.084 198.767 202.526 168.139ZM6.74749 113.843C6.74749 149.024 23.9805 180.18 50.4679 199.328V110.166C50.4679 88.4197 39.5415 69.225 22.879 57.7726C12.658 74.0126 6.74749 93.2375 6.74749 113.843Z" fill="white"/>
</g>
<rect x="10.9756" y="10.9756" width="203.05" height="203.05" rx="101.525" stroke="white" stroke-width="5.48785"/>
<defs>
<clipPath id="clip0_1577_975">
<rect x="8.23169" y="8.23169" width="208.538" height="208.538" rx="104.269" fill="white"/>
</clipPath>
</defs>
</svg>
